<svg xmlns="http://www.w3.org/2000/svg" width="18.762" height="18" viewBox="0 0 18.762 18">
  <path id="Cart_icon" data-name="Cart icon" d="M13.714,15.238a.762.762,0,1,1,.762.762A.762.762,0,0,1,13.714,15.238Zm-8.381,0A.762.762,0,1,1,6.095,16,.762.762,0,0,1,5.333,15.238Zm8.686-3.81H6.613A1.523,1.523,0,0,1,5.089,10.2L3.81,3.81H16.762L15.543,10.2a1.523,1.523,0,0,1-1.494,1.227ZM3.81,3.81,0,0H3.047L3.81,3.81Z" transform="translate(1 1)" fill="none" stroke="#fff" stroke-linecap="round" stroke-linejoin="round" stroke-miterlimit="10" stroke-width="2" opacity="0.5"/>
</svg>
