<svg xmlns="http://www.w3.org/2000/svg" width="19.111" height="16.116" viewBox="0 0 19.111 16.116">
  <g id="Icon" transform="translate(1 1.116)" opacity="0.5">
    <path id="Path" d="M12.444,4.667V3.111A3.111,3.111,0,0,0,9.333,0H3.111A3.111,3.111,0,0,0,0,3.111V4.667" transform="translate(0 9.333)" fill="none" stroke="#fff" stroke-linecap="round" stroke-linejoin="round" stroke-miterlimit="10" stroke-width="2"/>
    <circle id="Oval" cx="3.111" cy="3.111" r="3.111" transform="translate(3.111 0)" fill="none" stroke="#fff" stroke-linecap="round" stroke-linejoin="round" stroke-miterlimit="10" stroke-width="2"/>
    <path id="Path-2" data-name="Path" d="M2.333,4.566V3.01A3.111,3.111,0,0,0,0,0" transform="translate(14.778 9.434)" fill="none" stroke="#fff" stroke-linecap="round" stroke-linejoin="round" stroke-miterlimit="10" stroke-width="2"/>
    <path id="Path-3" data-name="Path" d="M0,0A3.111,3.111,0,0,1,2.339,3.014,3.111,3.111,0,0,1,0,6.028" transform="translate(11.667 0.101)" fill="none" stroke="#fff" stroke-linecap="round" stroke-linejoin="round" stroke-miterlimit="10" stroke-width="2"/>
  </g>
</svg>
