<svg xmlns="http://www.w3.org/2000/svg" xmlns:xlink="http://www.w3.org/1999/xlink" width="46" height="25" viewBox="0 0 46 25">
  <defs>
    <linearGradient id="linear-gradient" x2="1.02" y2="1.01" gradientUnits="objectBoundingBox">
      <stop offset="0" stop-color="#ff3d57"/>
      <stop offset="1" stop-color="#ff8a48"/>
    </linearGradient>
  </defs>
  <path id="Meher_icon" data-name="Meher icon" d="M4.285,24.983A9.471,9.471,0,0,1,.227,23.806,2.331,2.331,0,0,1,0,23.639c.244-.441.482-.874.724-1.308q1.547-2.777,3.1-5.552c.949-1.7,1.913-3.382,2.862-5.077Q8.66,8.167,10.63,4.627c.456-.815.9-1.643,1.4-2.429A4.719,4.719,0,0,1,15.219.085a4.206,4.206,0,0,1,.8-.085h.094a4.863,4.863,0,0,1,4.025,2.277c.665,1.1,1.261,2.247,1.889,3.371Q23.157,7.676,24.29,9.7a1.751,1.751,0,0,0,.127.163c.257-.45.5-.868.735-1.291,1.018-1.812,2.041-3.62,3.049-5.437a6.573,6.573,0,0,1,1.364-1.906,4.846,4.846,0,0,1,7.6,1.588C38.306,5,39.556,7.128,40.758,9.277q.587,1.046,1.174,2.094a1.53,1.53,0,0,1,.068.174,5.422,5.422,0,0,0-1.88-1.2,4.716,4.716,0,0,0-3.722.175,5.7,5.7,0,0,0-2.57,2.666c-1.233,2.262-2.515,4.5-3.775,6.742-.51.908-.995,1.828-1.53,2.718a4.726,4.726,0,0,1-3.241,2.25,4.944,4.944,0,0,1-5.3-2.727c-.64-1.283-1.39-2.508-2.093-3.757q-.869-1.55-1.744-3.1c-.015-.026-.035-.048-.1-.136-.228.4-.433.752-.635,1.109-.8,1.417-1.564,2.866-2.423,4.25a9.243,9.243,0,0,1-4.059,3.538A9.577,9.577,0,0,1,4.857,25Q4.572,25,4.285,24.983ZM41,25a5,5,0,0,1-1.427-.21l-.044-.015c-.126-.039-.252-.08-.374-.13s-.23-.1-.343-.154c-.022-.011-.048-.02-.07-.032a4.97,4.97,0,0,1-2.412-2.675c-.015-.039-.03-.078-.044-.117q-.035-.1-.065-.2c-.035-.107-.065-.218-.091-.33-.006-.031-.015-.06-.022-.091a5,5,0,0,1,4.479-6.037c.042,0,.084,0,.126,0,.1,0,.2-.008.293-.008h.112c.157,0,.315.016.472.035.043.005.085.014.127.02.1.015.208.032.31.054.125.025.247.058.367.093l.037.01a4.972,4.972,0,0,1,3.184,6.677c-.028.069-.061.135-.093.2s-.058.138-.094.2A5.036,5.036,0,0,1,41.011,25Z" fill="url(#linear-gradient)"/>
</svg>
